<?xml version="1.0" encoding="utf-8"?>
<!-- Generator: Adobe Illustrator 19.0.0, SVG Export Plug-In . SVG Version: 6.00 Build 0)  -->
<svg version="1.1" id="Capa_1" xmlns="http://www.w3.org/2000/svg" xmlns:xlink="http://www.w3.org/1999/xlink" x="0px" y="0px"
	 viewBox="-264 65.9 430.1 430.1" style="enable-background:new -264 65.9 430.1 430.1;" xml:space="preserve">
<style type="text/css">
	.st0{fill:#4C4C4C;}
</style>
<g>
	<path class="st0" d="M-48.7,408c-70.1,0-127-57-127-127c0-70.1,57-127,127-127c70.1,0,127,57,127,127C78.3,351,21.3,408-48.7,408z
		 M-48.7,160.9c-66.2,0-120,53.9-120,120s53.9,120,120,120s120-53.9,120-120S17.5,160.9-48.7,160.9z"/>
</g>
<g>
	<path class="st0" d="M-17.5,149.9H-80c-4.3,0-8.1-2.2-10.3-5.9c-2.1-3.7-2.1-8.1,0-11.9L-59.1,78c2.1-3.7,6-5.9,10.3-5.9l0,0
		c4.3,0,8.1,2.2,10.3,5.9l31.2,54.1c2.1,3.7,2.1,8.1,0,11.9C-9.4,147.7-13.2,149.9-17.5,149.9z M-84.2,135.7c-0.9,1.5-0.9,3.3,0,4.9
		c0.9,1.6,2.4,2.4,4.2,2.4h62.5c1.8,0,3.3-0.9,4.2-2.4s0.9-3.3,0-4.9l-31.2-54.1c-0.9-1.5-2.4-2.4-4.2-2.4s-3.3,0.9-4.2,2.4
		L-84.2,135.7z"/>
</g>
<g>
	<path class="st0" d="M-171.8,213.9c-1,0-2.1-0.1-3.1-0.4c-4.1-1.1-7.3-4.2-8.4-8.4l-16.2-60.3c-1.1-4.1,0-8.4,3.1-11.4
		c3-3,7.3-4.2,11.4-3.1l60.3,16.2c4.1,1.1,7.3,4.2,8.4,8.4c1.1,4.1,0,8.4-3.1,11.4l-44.2,44.2C-165.7,212.7-168.7,213.9-171.8,213.9
		z M-188,136.8c-1.3,0-2.5,0.5-3.4,1.4c-1.2,1.2-1.7,3-1.3,4.7l16.2,60.3c0.5,1.7,1.7,3,3.4,3.4c1.7,0.5,3.4,0,4.7-1.3l44.2-44.2
		c1.2-1.2,1.7-3,1.3-4.7c-0.5-1.7-1.7-3-3.4-3.4l-60.5-16C-187.2,136.9-187.6,136.8-188,136.8z"/>
</g>
<g>
	<path class="st0" d="M-191.6,324.1c-2,0-4.1-0.5-5.9-1.6l-54.1-31.2c-3.7-2.1-5.9-6-5.9-10.3s2.2-8.1,5.9-10.3l54.1-31.2
		c3.7-2.1,8.1-2.1,11.9,0c3.7,2.1,5.9,6,5.9,10.3v62.5c0,4.3-2.2,8.1-5.9,10.3C-187.5,323.5-189.6,324.1-191.6,324.1z M-194,316.4
		c1.5,0.9,3.3,0.9,4.9,0c1.5-0.9,2.4-2.4,2.4-4.2v-62.5c0-1.8-0.9-3.3-2.4-4.2s-3.3-0.9-4.9,0l-54.1,31.2c-1.5,0.9-2.4,2.4-2.4,4.2
		s0.9,3.3,2.4,4.2L-194,316.4z"/>
</g>
<g>
	<path class="st0" d="M-188.1,432.1c-3.1,0-6.1-1.2-8.3-3.5c-3-3-4.2-7.3-3.1-11.4l16.2-60.3c1.1-4.1,4.2-7.3,8.4-8.4
		c4.1-1.1,8.4,0,11.4,3.1l44.2,44.2c3,3,4.2,7.3,3.1,11.5c-1.1,4.1-4.2,7.3-8.4,8.4l-60.3,16.2C-186,431.9-187,432.1-188.1,432.1z
		 M-171.8,355c-0.4,0-0.9,0.1-1.3,0.2c-1.7,0.5-3,1.7-3.4,3.4l-16.2,60.3c-0.5,1.7,0,3.4,1.3,4.7c1.2,1.2,3,1.7,4.7,1.3l60.3-16.2
		c1.7-0.5,3-1.7,3.4-3.4c0.5-1.7,0-3.4-1.3-4.7l-44.2-44.2C-169.3,355.5-170.6,355-171.8,355z"/>
</g>
<g>
	<path class="st0" d="M-48.7,489.8c-4.3,0-8.1-2.2-10.3-5.9l-31.2-54.1c-2.1-3.7-2.1-8.1,0-11.9c2.1-3.7,6-5.9,10.3-5.9h62.5
		c4.3,0,8.1,2.2,10.3,5.9s2.1,8.1,0,11.9l-31.2,54.1C-40.6,487.5-44.5,489.8-48.7,489.8z M-80,418.9c-1.8,0-3.3,0.9-4.2,2.4
		s-0.9,3.3,0,4.9l31.2,54.1c0.9,1.5,2.4,2.4,4.2,2.4s3.3-0.9,4.2-2.4l31.2-54.1c0.9-1.5,0.9-3.3,0-4.9c-0.9-1.5-2.4-2.4-4.2-2.4H-80
		z"/>
</g>
<g>
	<path class="st0" d="M90.6,432.1c-1,0-2.1-0.1-3.1-0.4l-60.3-16.2c-4.1-1.1-7.3-4.2-8.4-8.4c-1.1-4.1,0-8.4,3.1-11.5l44.2-44.2
		c3-3,7.3-4.2,11.5-3.1c4.1,1.1,7.3,4.2,8.4,8.4l16.2,60.3c1.1,4.1,0,8.4-3.1,11.4C96.6,430.9,93.7,432.1,90.6,432.1z M74.3,355
		c-1.3,0-2.5,0.5-3.4,1.4l-44.2,44.2c-1.2,1.2-1.7,3-1.3,4.7s1.7,3,3.4,3.4l60.3,16.2c1.7,0.5,3.4,0,4.7-1.3c1.2-1.2,1.7-3,1.3-4.7
		l-16.2-60.3c-0.5-1.7-1.7-3-3.4-3.4C75.2,355.1,74.8,355,74.3,355z"/>
</g>
<g>
	<path class="st0" d="M94.1,324.1c-2,0-4.1-0.5-5.9-1.6c-3.7-2.1-5.9-6-5.9-10.3v-62.5c0-4.3,2.2-8.1,5.9-10.3
		c3.7-2.1,8.1-2.1,11.9,0l54.1,31.2c3.7,2.1,5.9,6,5.9,10.3s-2.2,8.1-5.9,10.3l-54.1,31.2C98.2,323.5,96.1,324.1,94.1,324.1z
		 M94.1,244.8c-0.8,0-1.7,0.2-2.4,0.7c-1.5,0.9-2.4,2.4-2.4,4.2v62.5c0,1.8,0.9,3.3,2.4,4.2c1.5,0.9,3.3,0.9,4.9,0l54.1-31.2
		c1.5-0.9,2.4-2.4,2.4-4.2c0-1.8-0.9-3.3-2.4-4.2l-54.1-31.2C95.8,245.1,94.9,244.8,94.1,244.8z"/>
</g>
<g>
	<path class="st0" d="M74.3,213.9c-3.1,0-6.1-1.2-8.3-3.5l-44.2-44.2c-3-3-4.2-7.3-3.1-11.4c1.1-4.1,4.2-7.3,8.4-8.4l60.3-16.2
		c4.1-1.1,8.4,0,11.4,3.1c3,3,4.2,7.3,3.1,11.4L85.7,205c-1.1,4.1-4.2,7.3-8.4,8.4C76.4,213.7,75.3,213.9,74.3,213.9z M90.5,136.8
		c-0.4,0-0.9,0.1-1.3,0.2l-60.3,16.2c-1.7,0.5-3,1.7-3.4,3.4c-0.5,1.7,0,3.4,1.3,4.7L71,205.5c1.2,1.2,3,1.7,4.7,1.3s3-1.7,3.4-3.4
		l16.1-60.5c0.5-1.7,0-3.4-1.3-4.7C93,137.3,91.8,136.8,90.5,136.8z"/>
</g>
</svg>
