<?xml version="1.0" encoding="utf-8"?>
<!-- Generator: Adobe Illustrator 19.0.0, SVG Export Plug-In . SVG Version: 6.00 Build 0)  -->
<svg version="1.1" id="Capa_1" xmlns="http://www.w3.org/2000/svg" xmlns:xlink="http://www.w3.org/1999/xlink" x="0px" y="0px"
	 viewBox="-264 65.9 430.1 430.1" style="enable-background:new -264 65.9 430.1 430.1;" xml:space="preserve">
<style type="text/css">
	.st0{fill:#4C4C4C;}
	.st1{fill:#FFFFFF;stroke:#4C4C4C;stroke-width:9;stroke-miterlimit:10;}
	.st2{fill:#FFFFFF;stroke:#4C4C4C;stroke-width:5;stroke-miterlimit:10;}
</style>
<g>
	<g>
		<path class="st0" d="M53.4,286.5c-36.2,0-65.6-29.5-65.6-65.6c0-36.2,29.5-65.6,65.6-65.6c36.2,0,65.6,29.5,65.6,65.6
			C119.1,257,89.6,286.5,53.4,286.5z M53.4,158.8c-34.2,0-62,27.8-62,62s27.8,62,62,62s62-27.8,62-62S87.6,158.8,53.4,158.8z"/>
	</g>
	<g>
		<path class="st0" d="M69.6,153.1H37.3c-2.2,0-4.2-1.1-5.3-3.1c-1.1-1.9-1.1-4.2,0-6.1l16.1-28c1.1-1.9,3.1-3.1,5.3-3.1l0,0
			c2.2,0,4.2,1.1,5.3,3.1l16.1,28c1.1,1.9,1.1,4.2,0,6.1C73.8,152,71.8,153.1,69.6,153.1z M35.1,145.7c-0.5,0.8-0.5,1.7,0,2.5
			s1.3,1.3,2.2,1.3h32.3c0.9,0,1.7-0.5,2.2-1.3s0.5-1.7,0-2.5l-16.1-28c-0.5-0.8-1.3-1.3-2.2-1.3s-1.7,0.5-2.2,1.3L35.1,145.7z"/>
	</g>
	<g>
		<path class="st0" d="M-10.2,186.2c-0.5,0-1.1-0.1-1.6-0.2c-2.1-0.6-3.8-2.2-4.3-4.3l-8.4-31.2c-0.6-2.1,0-4.4,1.6-5.9
			c1.6-1.6,3.8-2.2,5.9-1.6l31.2,8.4c2.1,0.6,3.8,2.2,4.3,4.3c0.6,2.1,0,4.4-1.6,5.9l-22.8,22.8C-7,185.5-8.6,186.2-10.2,186.2z
			 M-18.6,146.3c-0.7,0-1.3,0.3-1.8,0.7c-0.6,0.6-0.9,1.5-0.6,2.4l8.4,31.2c0.2,0.9,0.9,1.5,1.8,1.8c0.9,0.2,1.8,0,2.4-0.6L14.4,159
			c0.6-0.6,0.9-1.5,0.6-2.4c-0.2-0.9-0.9-1.5-1.8-1.8l-31.2-8.4C-18.1,146.4-18.3,146.3-18.6,146.3z"/>
	</g>
	<g>
		<path class="st0" d="M-20.4,243.1c-1.1,0-2.1-0.3-3.1-0.8l-28-16.1c-1.9-1.1-3.1-3.1-3.1-5.3s1.1-4.2,3.1-5.3l28-16.1
			c1.9-1.1,4.2-1.1,6.1,0s3.1,3.1,3.1,5.3v32.3c0,2.2-1.1,4.2-3.1,5.3C-18.3,242.8-19.4,243.1-20.4,243.1z M-21.7,239.1
			c0.8,0.5,1.7,0.5,2.5,0s1.3-1.3,1.3-2.2v-32.2c0-0.9-0.5-1.7-1.3-2.2s-1.7-0.5-2.5,0l-28,16.1c-0.8,0.5-1.3,1.3-1.3,2.2
			s0.5,1.7,1.3,2.2L-21.7,239.1z"/>
	</g>
	<g>
		<path class="st0" d="M-18.6,298.9c-1.6,0-3.1-0.6-4.3-1.8c-1.6-1.6-2.2-3.8-1.6-5.9l8.4-31.2c0.6-2.1,2.2-3.8,4.3-4.3
			c2.1-0.6,4.4,0,5.9,1.6l22.8,22.8c1.6,1.6,2.2,3.8,1.6,5.9c-0.6,2.1-2.2,3.8-4.3,4.3l-31.2,8.4C-17.5,298.8-18,298.9-18.6,298.9z
			 M-10.2,259.1c-0.2,0-0.4,0-0.7,0.1c-0.9,0.2-1.5,0.9-1.8,1.8l-8.4,31.2c-0.2,0.9,0,1.8,0.6,2.4c0.6,0.6,1.5,0.9,2.4,0.6l31.2-8.4
			c0.9-0.2,1.5-0.9,1.8-1.8c0.2-0.9,0-1.8-0.6-2.4l-22.8-22.8C-8.9,259.3-9.5,259.1-10.2,259.1z"/>
	</g>
	<g>
		<path class="st0" d="M125.4,298.9c-0.5,0-1.1-0.1-1.6-0.2l-31.2-8.4c-2.1-0.6-3.8-2.2-4.3-4.3c-0.6-2.1,0-4.4,1.6-5.9l22.8-22.8
			c1.6-1.6,3.8-2.2,5.9-1.6c2.1,0.6,3.8,2.2,4.3,4.3l8.4,31.2c0.6,2.1,0,4.4-1.6,5.9C128.5,298.3,127,298.9,125.4,298.9z M117,259.1
			c-0.7,0-1.3,0.3-1.8,0.7l-22.8,22.8c-0.6,0.6-0.9,1.5-0.6,2.4c0.2,0.9,0.9,1.5,1.8,1.8l31.2,8.4c0.9,0.2,1.8,0,2.4-0.6
			c0.6-0.6,0.9-1.5,0.6-2.4l-8.4-31.2c-0.2-0.9-0.9-1.5-1.8-1.8C117.5,259.1,117.2,259.1,117,259.1z"/>
	</g>
	<g>
		<path class="st0" d="M127.2,243.1c-1.1,0-2.1-0.3-3.1-0.8c-1.9-1.1-3.1-3.1-3.1-5.3v-32.3c0-2.2,1.1-4.2,3.1-5.3
			c1.9-1.1,4.2-1.1,6.1,0l28,16.1c1.9,1.1,3.1,3.1,3.1,5.3s-1.1,4.2-3.1,5.3l-28,16.1C129.3,242.8,128.3,243.1,127.2,243.1z
			 M127.2,202.2c-0.4,0-0.9,0.1-1.3,0.3c-0.8,0.5-1.3,1.3-1.3,2.2V237c0,0.9,0.5,1.7,1.3,2.2s1.7,0.5,2.5,0l28-16.1
			c0.8-0.5,1.3-1.3,1.3-2.2s-0.5-1.7-1.3-2.2l-28-16.1C128.1,202.3,127.7,202.2,127.2,202.2z"/>
	</g>
	<g>
		<path class="st0" d="M117,186.2c-1.6,0-3.1-0.6-4.3-1.8l-22.8-22.8c-1.6-1.6-2.2-3.8-1.6-5.9c0.6-2.1,2.2-3.8,4.3-4.3l31.2-8.4
			c2.1-0.6,4.4,0,5.9,1.6c1.6,1.6,2.2,3.8,1.6,5.9l-8.4,31.2c-0.6,2.1-2.2,3.8-4.3,4.3C118.1,186.1,117.5,186.2,117,186.2z
			 M125.4,146.3c-0.2,0-0.4,0-0.7,0.1l-31.2,8.4c-0.9,0.2-1.5,0.9-1.8,1.8c-0.2,0.9,0,1.8,0.6,2.4l22.8,22.8
			c0.6,0.6,1.5,0.9,2.4,0.6c0.9-0.2,1.5-0.9,1.8-1.8l8.4-31.2c0.2-0.9,0-1.8-0.6-2.4C126.7,146.6,126,146.3,125.4,146.3z"/>
	</g>
</g>
<path class="st1" d="M102.7,267.1L102.7,267.1c-9-17.5-27.3-29.5-48.4-29.5c-1,0-1.9,0-2.9,0.1c-4.8-25.2-26.8-44.2-53.4-44.2
	c-19,0-35.8,9.8-45.5,24.6c-7.1-3.4-15.1-5.4-23.6-5.4c-30,0-54.4,24.3-54.4,54.4c0,30.1,24.3,54.4,54.4,54.4H8.6h91.3h56.3
	C156.3,291.7,132.4,267.5,102.7,267.1z"/>
<path class="st0" d="M-32.8,294.5L-32.8,294.5c-9-17.5-27.3-29.5-48.4-29.5c-1,0-1.9,0-2.9,0.1c-4.8-25.2-26.8-44.2-53.4-44.2
	c-19,0-35.8,9.8-45.5,24.6c-7.1-3.4-15.1-5.4-23.6-5.4c-30,0-54.4,24.3-54.4,54.4c0,30,24.3,54.4,54.4,54.4h79.7h91.3h56.3
	C20.8,319-3.1,294.9-32.8,294.5z"/>
<g>
	<path class="st2" d="M-157.6,369c0,9.3-7.5,16.8-16.8,16.8s-16.8-7.5-16.8-16.8s17.3-41.8,16.8-41.8S-157.6,359.8-157.6,369z"/>
	<path class="st2" d="M-95.1,434.1c0,9.3-7.5,16.8-16.8,16.8s-16.8-7.5-16.8-16.8s17.3-41.8,16.8-41.8S-95.1,424.9-95.1,434.1z"/>
	<path class="st2" d="M30.3,423.3c0,9.3-7.5,16.8-16.8,16.8s-16.8-7.5-16.8-16.8s17.3-41.8,16.8-41.8S30.3,414.1,30.3,423.3z"/>
	<path class="st2" d="M-32.6,398.3c0,9.3-7.5,16.8-16.8,16.8s-16.8-7.5-16.8-16.8s17.3-41.8,16.8-41.8S-32.6,389-32.6,398.3z"/>
	<path class="st2" d="M97.6,356.2c0,9.3-7.5,16.8-16.8,16.8S64,365.5,64,356.2s17.3-41.8,16.8-41.8S97.6,347,97.6,356.2z"/>
</g>
</svg>
