<?xml version="1.0" encoding="utf-8"?>
<!-- Generator: Adobe Illustrator 19.0.0, SVG Export Plug-In . SVG Version: 6.00 Build 0)  -->
<svg version="1.1" id="Capa_1" xmlns="http://www.w3.org/2000/svg" xmlns:xlink="http://www.w3.org/1999/xlink" x="0px" y="0px"
	 viewBox="-264 65.9 430.1 430.1" style="enable-background:new -264 65.9 430.1 430.1;" xml:space="preserve">
<style type="text/css">
	.st0{fill:#FFFFFF;stroke:#4C4C4C;stroke-width:9;stroke-miterlimit:10;}
	.st1{fill:#4C4C4C;}
</style>
<path class="st0" d="M106.1,220.3L106.1,220.3c-9-17.5-27.3-29.5-48.4-29.5c-1,0-1.9,0-2.9,0.1C50,165.7,28,146.7,1.4,146.7
	c-19,0-35.8,9.8-45.5,24.6c-7.1-3.4-15.1-5.4-23.6-5.4c-30,0-54.4,24.3-54.4,54.4s24.3,54.4,54.4,54.4H12h91.3h56.3
	C159.7,244.9,135.8,220.7,106.1,220.3z"/>
<path class="st1" d="M-29.4,247.7L-29.4,247.7c-9-17.5-27.3-29.5-48.4-29.5c-1,0-1.9,0-2.9,0.1c-4.8-25.2-26.8-44.2-53.4-44.2
	c-19,0-35.8,9.8-45.5,24.6c-7.1-3.4-15.1-5.4-23.6-5.4c-30,0-54.4,24.3-54.4,54.4c0,30,24.3,54.4,54.4,54.4h79.7h91.3h56.3
	C24.2,272.2,0.3,248.1-29.4,247.7z"/>
<g>
	<circle class="st1" cx="-188.7" cy="325.2" r="8.2"/>
	<circle class="st1" cx="-89.5" cy="370.9" r="8.2"/>
	<circle class="st1" cx="-143.2" cy="379.2" r="8.2"/>
	<circle class="st1" cx="-23.2" cy="328" r="8.2"/>
	<circle class="st1" cx="-73" cy="325.2" r="8.2"/>
	<circle class="st1" cx="-73" cy="402" r="8.2"/>
	<circle class="st1" cx="29.5" cy="322.5" r="8.2"/>
	<circle class="st1" cx="4.8" cy="384.2" r="8.2"/>
	<circle class="st1" cx="40.5" cy="387.4" r="8.2"/>
	<circle class="st1" cx="69.3" cy="330.7" r="8.2"/>
	<circle class="st1" cx="48.8" cy="351.3" r="8.2"/>
	<circle class="st1" cx="-194.6" cy="392.4" r="8.2"/>
	<circle class="st1" cx="99.9" cy="328" r="8.2"/>
	<circle class="st1" cx="-44.2" cy="370.9" r="8.2"/>
	<circle class="st1" cx="-163.1" cy="354.5" r="8.2"/>
	<circle class="st1" cx="-115.7" cy="322.5" r="8.2"/>
</g>
</svg>
