<?xml version="1.0" encoding="utf-8"?>
<!-- Generator: Adobe Illustrator 19.0.0, SVG Export Plug-In . SVG Version: 6.00 Build 0)  -->
<svg version="1.1" id="Capa_1" xmlns="http://www.w3.org/2000/svg" xmlns:xlink="http://www.w3.org/1999/xlink" x="0px" y="0px"
	 viewBox="-264 65.9 430.1 430.1" style="enable-background:new -264 65.9 430.1 430.1;" xml:space="preserve">
<style type="text/css">
	.st0{fill:none;stroke:#4C4C4C;stroke-width:30;stroke-miterlimit:10;}
</style>
<g>
	<polyline class="st0" points="-248.1,158 -198.6,198 -149.1,158 -99.6,198 -50.1,158 -0.6,198 49,158 98.5,198 148,158 	"/>
</g>
<g>
	<polyline class="st0" points="-248.1,234 -198.6,274 -149.1,234 -99.6,274 -50.1,234 -0.6,274 49,234 98.5,274 148,234 	"/>
</g>
<g>
	<polyline class="st0" points="-248.1,310 -198.6,350 -149.1,310 -99.6,350 -50.1,310 -0.6,350 49,310 98.5,350 148,310 	"/>
</g>
<g>
	<polyline class="st0" points="-248.1,386.1 -198.6,426.1 -149.1,386.1 -99.6,426.1 -50.1,386.1 -0.6,426.1 49,386.1 98.5,426.1 
		148,386.1 	"/>
</g>
</svg>
