<?xml version="1.0" encoding="utf-8"?>
<!-- Generator: Adobe Illustrator 19.0.0, SVG Export Plug-In . SVG Version: 6.00 Build 0)  -->
<svg version="1.1" id="Capa_1" xmlns="http://www.w3.org/2000/svg" xmlns:xlink="http://www.w3.org/1999/xlink" x="0px" y="0px"
	 viewBox="-264 65.9 430.1 430.1" style="enable-background:new -264 65.9 430.1 430.1;" xml:space="preserve">
<style type="text/css">
	.st0{fill:#FFFFFF;stroke:#4C4C4C;stroke-width:9;stroke-miterlimit:10;}
	.st1{fill:#4C4C4C;}
</style>
<path class="st0" d="M106.1,240.3L106.1,240.3c-9-17.5-27.3-29.5-48.4-29.5c-1,0-1.9,0-2.9,0.1C50,185.8,28,166.8,1.4,166.8
	c-19,0-35.8,9.8-45.5,24.6c-7.1-3.4-15.1-5.4-23.6-5.4c-30,0-54.4,24.3-54.4,54.4s24.3,54.4,54.4,54.4H12h91.3h56.3
	C159.7,264.9,135.8,240.7,106.1,240.3z"/>
<path class="st1" d="M-29.4,267.7L-29.4,267.7c-9-17.5-27.3-29.5-48.4-29.5c-1,0-1.9,0-2.9,0.1c-4.8-25.2-26.8-44.2-53.4-44.2
	c-19,0-35.8,9.8-45.5,24.6c-7.1-3.4-15.1-5.4-23.6-5.4c-30,0-54.4,24.3-54.4,54.4c0,30,24.3,54.4,54.4,54.4h79.7h91.3h56.3
	C24.2,292.2,0.3,268.1-29.4,267.7z"/>
<g>
	<g>
		<polygon class="st1" points="-105.1,356.9 -106.6,360.5 -120.8,392.7 -122.8,397.2 -128.3,394.8 -126.3,390.3 -113.3,360.7 
			-113.2,360.5 -110.6,354.7 -110.6,354.5 -110.1,354.7 -107.8,355.7 		"/>
	</g>
	<g>
		<g>
			<polygon class="st1" points="-142.5,434.8 -96.2,390 -124.2,393.1 -140.8,370.4 			"/>
		</g>
	</g>
</g>
<g>
	<polyline class="st1" points="-129.2,356.3 -128.7,355.3 -128.4,354.5 -110.6,354.5 -110.1,354.7 -107.8,355.7 -105.1,356.9 
		-106.6,360.5 -124.4,360.5 -129.2,358.4 	"/>
</g>
<g>
	<polygon class="st1" points="-129.2,356.3 -129.2,358.4 -129.9,358.1 	"/>
	<polygon class="st1" points="-103.4,311 -121.8,354.5 -122.2,355.3 -124.4,360.5 -129.2,358.4 -129.2,356.3 -128.7,355.3 
		-128.4,354.5 -108.9,308.7 	"/>
</g>
<g>
	<g>
		<polygon class="st1" points="-23.6,350.2 -24.6,352.7 -34.4,374.9 -35.7,378 -39.5,376.3 -38.2,373.3 -29.2,352.8 -29.2,352.7 
			-27.4,348.7 -27.3,348.6 -27,348.7 -25.4,349.4 		"/>
	</g>
	<g>
		<g>
			<polygon class="st1" points="-49.3,403.9 -17.4,373 -36.7,375.2 -48.2,359.5 			"/>
		</g>
	</g>
</g>
<g>
	<polyline class="st1" points="-40.2,349.8 -39.9,349.1 -39.6,348.6 -27.3,348.6 -27,348.7 -25.4,349.4 -23.6,350.2 -24.6,352.7 
		-36.9,352.7 -40.2,351.3 	"/>
</g>
<g>
	<polygon class="st1" points="-40.2,349.8 -40.2,351.3 -40.7,351.1 	"/>
	<polygon class="st1" points="-22.4,318.7 -35.1,348.6 -35.4,349.1 -36.9,352.7 -40.2,351.3 -40.2,349.8 -39.9,349.1 -39.6,348.6 
		-26.2,317 	"/>
</g>
</svg>
