<?xml version="1.0" encoding="utf-8"?>
<!-- Generator: Adobe Illustrator 19.0.0, SVG Export Plug-In . SVG Version: 6.00 Build 0)  -->
<svg version="1.1" id="Capa_1" xmlns="http://www.w3.org/2000/svg" xmlns:xlink="http://www.w3.org/1999/xlink" x="0px" y="0px"
	 viewBox="-264 65.9 430.1 430.1" style="enable-background:new -264 65.9 430.1 430.1;" xml:space="preserve">
<style type="text/css">
	.st0{fill:#4C4C4C;}
</style>
<path class="st0" d="M-45.1,111.7c-94,0-170.6,76.4-170.6,170.6c0,94,76.4,170.6,170.6,170.6c94,0,170.6-76.6,170.6-170.6
	S49.1,111.7-45.1,111.7z"/>
<path class="st0" d="M86.6,97.8l10.2-1.6c2.5-0.4,4.2,2.3,2.8,4.4l-5.7,8.6c-0.7,1-0.6,2.4,0.2,3.4l6.5,8c1.6,1.9,0.1,4.8-2.4,4.7
	l-10.3-0.6c-1.2-0.1-2.4,0.7-2.8,1.8l-3.7,9.6c-0.9,2.3-4.1,2.5-5.2,0.2l-4.6-9.2c-0.6-1.1-1.8-1.7-3-1.6l-10.2,1.6
	c-2.5,0.4-4.2-2.3-2.8-4.4l5.7-8.6c0.7-1,0.6-2.4-0.2-3.4l-6.5-8c-1.6-1.9-0.1-4.8,2.4-4.7l10.3,0.6c1.2,0.1,2.4-0.7,2.8-1.8
	l3.7-9.6c0.9-2.3,4.1-2.5,5.2-0.2l4.6,9.2C84.1,97.4,85.4,98,86.6,97.8z"/>
<path class="st0" d="M124.7,152.5l4.4,3.7c1.1,0.9,0.5,2.6-0.8,2.8l-5.7,0.7c-0.7,0.1-1.2,0.6-1.4,1.3l-1,5.7
	c-0.3,1.4-2,1.8-2.8,0.7l-3.5-4.6c-0.4-0.6-1.2-0.8-1.8-0.5l-5.4,1.9c-1.3,0.5-2.5-0.8-2-2.1l2.2-5.3c0.3-0.6,0.1-1.4-0.4-1.8
	l-4.4-3.7c-1.1-0.9-0.5-2.6,0.8-2.8l5.7-0.7c0.7-0.1,1.2-0.6,1.4-1.3l1-5.7c0.3-1.4,2-1.8,2.8-0.7l3.5,4.6c0.4,0.6,1.2,0.8,1.8,0.5
	l5.4-1.9c1.3-0.5,2.5,0.8,2,2.1l-2.2,5.3C124,151.3,124.1,152,124.7,152.5z"/>
</svg>
