<?xml version="1.0" encoding="utf-8"?>
<!-- Generator: Adobe Illustrator 19.0.0, SVG Export Plug-In . SVG Version: 6.00 Build 0)  -->
<svg version="1.1" id="Capa_1" xmlns="http://www.w3.org/2000/svg" xmlns:xlink="http://www.w3.org/1999/xlink" x="0px" y="0px"
	 viewBox="-264 65.9 430.1 430.1" style="enable-background:new -264 65.9 430.1 430.1;" xml:space="preserve">
<style type="text/css">
	.st0{fill:none;stroke:#4C4C4C;stroke-width:9;stroke-miterlimit:10;}
	.st1{fill:#4C4C4C;}
	.st2{fill:#FFFFFF;stroke:#4C4C4C;stroke-width:5;stroke-miterlimit:10;}
</style>
<path class="st0" d="M106.1,232.9L106.1,232.9c-9-17.5-27.3-29.5-48.4-29.5c-1,0-1.9,0-2.9,0.1C50,178.3,28,159.3,1.4,159.3
	c-19,0-35.8,9.8-45.5,24.6c-7.1-3.4-15.1-5.4-23.6-5.4c-30,0-54.4,24.3-54.4,54.4s24.3,54.4,54.4,54.4H12h91.3h56.3
	C159.7,257.5,135.8,233.3,106.1,232.9z"/>
<path class="st1" d="M-29.4,260.3L-29.4,260.3c-9-17.5-27.3-29.5-48.4-29.5c-1,0-1.9,0-2.9,0.1c-4.8-25.2-26.8-44.2-53.4-44.2
	c-19,0-35.8,9.8-45.5,24.6c-7.1-3.4-15.1-5.4-23.6-5.4c-30,0-54.4,24.3-54.4,54.4c0,30,24.3,54.4,54.4,54.4h79.7h91.3h56.3
	C24.2,284.8,0.3,260.7-29.4,260.3z"/>
<g>
	<path class="st2" d="M-154.2,334.8c0,9.3-7.5,16.8-16.8,16.8s-16.8-7.5-16.8-16.8S-170.5,293-171,293S-154.2,325.6-154.2,334.8z"/>
	<path class="st2" d="M-91.7,399.9c0,9.3-7.5,16.8-16.8,16.8s-16.8-7.5-16.8-16.8s17.3-41.8,16.8-41.8S-91.7,390.7-91.7,399.9z"/>
	<path class="st2" d="M33.7,389.1c0,9.3-7.5,16.8-16.8,16.8s-16.8-7.5-16.8-16.8s17.3-41.8,16.8-41.8S33.7,379.9,33.7,389.1z"/>
	<path class="st2" d="M-29.2,364.1c0,9.3-7.5,16.8-16.8,16.8s-16.8-7.5-16.8-16.8s17.3-41.8,16.8-41.8S-29.2,354.8-29.2,364.1z"/>
	<path class="st2" d="M101,322c0,9.3-7.5,16.8-16.8,16.8s-16.8-7.5-16.8-16.8s17.3-41.8,16.8-41.8S101,312.8,101,322z"/>
</g>
</svg>
