<?xml version="1.0" encoding="utf-8"?>
<!-- Generator: Adobe Illustrator 19.0.0, SVG Export Plug-In . SVG Version: 6.00 Build 0)  -->
<svg version="1.1" id="Capa_1" xmlns="http://www.w3.org/2000/svg" xmlns:xlink="http://www.w3.org/1999/xlink" x="0px" y="0px"
	 viewBox="-264 65.9 430.1 430.1" style="enable-background:new -264 65.9 430.1 430.1;" xml:space="preserve">
<style type="text/css">
	.st0{fill:#4C4C4C;}
	.st1{fill:#FFFFFF;stroke:#4C4C4C;stroke-width:9;stroke-miterlimit:10;}
	.st2{fill:#FFFFFF;stroke:#4C4C4C;stroke-width:5;stroke-miterlimit:10;}
</style>
<circle class="st0" cx="68.3" cy="225.7" r="86.7"/>
<path class="st1" d="M104.7,272L104.7,272c-9-17.5-27.3-29.5-48.4-29.5c-1,0-1.9,0-2.9,0.1c-4.8-25.2-26.8-44.2-53.4-44.2
	c-19,0-35.8,9.8-45.5,24.6c-7.1-3.4-15.1-5.4-23.6-5.4c-30,0-54.4,24.3-54.4,54.4s24.3,54.4,54.4,54.4h79.7h91.3h56.3
	C158.3,296.6,134.4,272.4,104.7,272z"/>
<path class="st0" d="M-30.8,299.4L-30.8,299.4c-9-17.5-27.3-29.5-48.4-29.5c-1,0-1.9,0-2.9,0.1c-4.8-25.2-26.8-44.2-53.4-44.2
	c-19,0-35.8,9.8-45.5,24.6c-7.1-3.4-15.1-5.4-23.6-5.4c-30,0-54.4,24.3-54.4,54.4c0,30,24.3,54.4,54.4,54.4h79.7h91.3h56.3
	C22.8,323.9-1.1,299.8-30.8,299.4z"/>
<g>
	<path class="st2" d="M-166.3,369.5c0,9.3-7.5,16.8-16.8,16.8s-16.8-7.5-16.8-16.8s17.3-41.8,16.8-41.8S-166.3,360.2-166.3,369.5z"
		/>
	<path class="st2" d="M-103.7,434.6c0,9.3-7.5,16.8-16.8,16.8s-16.8-7.5-16.8-16.8s17.3-41.8,16.8-41.8S-103.7,425.3-103.7,434.6z"
		/>
	<path class="st2" d="M21.6,423.8c0,9.3-7.5,16.8-16.8,16.8S-12,433.1-12,423.8S5.3,382,4.8,382S21.6,414.5,21.6,423.8z"/>
	<path class="st2" d="M-41.2,398.7c0,9.3-7.5,16.8-16.8,16.8s-16.8-7.5-16.8-16.8s17.3-41.8,16.8-41.8S-41.2,389.5-41.2,398.7z"/>
	<path class="st2" d="M89,356.7c0,9.3-7.5,16.8-16.8,16.8s-16.8-7.5-16.8-16.8s17.3-41.8,16.8-41.8S89,347.4,89,356.7z"/>
</g>
</svg>
