<?xml version="1.0" encoding="utf-8"?>
<!-- Generator: Adobe Illustrator 19.0.0, SVG Export Plug-In . SVG Version: 6.00 Build 0)  -->
<svg version="1.1" id="Capa_1" xmlns="http://www.w3.org/2000/svg" xmlns:xlink="http://www.w3.org/1999/xlink" x="0px" y="0px"
	 viewBox="-264 65.9 430.1 430.1" style="enable-background:new -264 65.9 430.1 430.1;" xml:space="preserve">
<style type="text/css">
	.st0{fill:none;stroke:#4C4C4C;stroke-width:9;stroke-miterlimit:10;}
	.st1{fill:#4C4C4C;}
</style>
<path class="st0" d="M106.1,267L106.1,267c-9-17.5-27.3-29.5-48.4-29.5c-1,0-1.9,0-2.9,0.1C50,212.4,28,193.4,1.4,193.4
	c-19,0-35.8,9.8-45.5,24.6c-7.1-3.4-15.1-5.4-23.6-5.4c-30,0-54.4,24.3-54.4,54.4s24.3,54.4,54.4,54.4H12h91.3h56.3
	C159.7,291.6,135.8,267.4,106.1,267z"/>
<path class="st1" d="M-29.4,294.4L-29.4,294.4c-9-17.5-27.3-29.5-48.4-29.5c-1,0-1.9,0-2.9,0.1c-4.8-25.2-26.8-44.2-53.4-44.2
	c-19,0-35.8,9.8-45.5,24.6c-7.1-3.4-15.1-5.4-23.6-5.4c-30,0-54.4,24.3-54.4,54.4c0,30,24.3,54.4,54.4,54.4h79.7h91.3h56.3
	C24.2,318.9,0.3,294.8-29.4,294.4z"/>
</svg>
